<?xml version="1.0" encoding="UTF-8" standalone="no"?>
<!-- Created with Inkscape (http://www.inkscape.org/) -->

<svg
   xmlns:dc="http://purl.org/dc/elements/1.1/"
   xmlns:cc="http://creativecommons.org/ns#"
   xmlns:rdf="http://www.w3.org/1999/02/22-rdf-syntax-ns#"
   xmlns:svg="http://www.w3.org/2000/svg"
   xmlns="http://www.w3.org/2000/svg"
   xmlns:sodipodi="http://sodipodi.sourceforge.net/DTD/sodipodi-0.dtd"
   xmlns:inkscape="http://www.inkscape.org/namespaces/inkscape"
   version="1.1"
   id="svg11371"
   xml:space="preserve"
   width="800"
   height="800"
   viewBox="0 0 800 800"
   sodipodi:docname="Hungary-patriotic-love-publicdomainvectors.org.svg"
   inkscape:version="0.92.4 (5da689c313, 2019-01-14)"><metadata
     id="metadata11377"><rdf:RDF><cc:Work
         rdf:about=""><dc:format>image/svg+xml</dc:format><dc:type
           rdf:resource="http://purl.org/dc/dcmitype/StillImage" /><dc:title></dc:title></cc:Work></rdf:RDF></metadata><defs
     id="defs11375"><clipPath
       clipPathUnits="userSpaceOnUse"
       id="clipPath11387"><path
         d="M 0,600 H 600 V 0 H 0 Z"
         id="path11385"
         inkscape:connector-curvature="0" /></clipPath></defs><sodipodi:namedview
     pagecolor="#ffffff"
     bordercolor="#666666"
     borderopacity="1"
     objecttolerance="10"
     gridtolerance="10"
     guidetolerance="10"
     inkscape:pageopacity="0"
     inkscape:pageshadow="2"
     inkscape:window-width="724"
     inkscape:window-height="480"
     id="namedview11373"
     showgrid="false"
     inkscape:zoom="0.295"
     inkscape:cx="400"
     inkscape:cy="400"
     inkscape:window-x="0"
     inkscape:window-y="0"
     inkscape:window-maximized="0"
     inkscape:current-layer="g11379" /><g
     id="g11379"
     inkscape:groupmode="layer"
     inkscape:label="Hungary-patriotic-love-publicdomainvectors.org"
     transform="matrix(1.3333333,0,0,-1.3333333,0,800)"><g
       id="g11381"><g
         id="g11383"
         clip-path="url(#clipPath11387)"><path
           d="M 600,0 H 0 v 599.359 h 600 z"
           style="fill:#231f20;fill-opacity:1;fill-rule:nonzero;stroke:none"
           id="path11389"
           inkscape:connector-curvature="0" /><path
           d="m 567.788,387.639 c 0,0 -13.682,-7.899 -31.192,-18.009 h 16.07 c 11.698,7.18 18.928,11.616 18.928,11.616 1.142,0.701 1.774,1.923 1.774,3.174 0,0.648 -0.17,1.304 -0.524,1.9 -1.04,1.749 -3.294,2.336 -5.056,1.319"
           style="fill:#cb2943;fill-opacity:1;fill-rule:nonzero;stroke:none"
           id="path11391"
           inkscape:connector-curvature="0" /><path
           d="m 551.86,380.526 c 1.153,0.7 1.792,1.926 1.792,3.184 0,0.644 -0.169,1.298 -0.52,1.892 -1.038,1.754 -3.295,2.345 -5.061,1.327 0,0 -11.698,-6.753 -29.963,-17.299 h 15.795 c 10.454,6.344 17.957,10.896 17.957,10.896"
           style="fill:#cb2943;fill-opacity:1;fill-rule:nonzero;stroke:none"
           id="path11393"
           inkscape:connector-curvature="0" /><path
           d="m 547.674,402.259 c 1.156,0.698 1.797,1.927 1.797,3.187 0,0.644 -0.166,1.295 -0.518,1.889 -1.037,1.757 -3.297,2.35 -5.062,1.33 0,0 -33.022,-19.065 -67.612,-39.035 h 17.379 c 17.645,10.658 54.016,32.629 54.016,32.629"
           style="fill:#cb2943;fill-opacity:1;fill-rule:nonzero;stroke:none"
           id="path11395"
           inkscape:connector-curvature="0" /><path
           d="m 310.438,408.938 c 1.124,0.705 1.741,1.915 1.741,3.152 0,0.654 -0.173,1.317 -0.534,1.917 -1.046,1.736 -3.291,2.315 -5.046,1.302 0,0 -32.833,-18.956 -48.292,-27.882 10.643,6.629 38.127,23.744 38.127,23.744 1.13,0.704 1.754,1.918 1.754,3.161 0,0.651 -0.172,1.312 -0.531,1.91 -1.045,1.741 -3.291,2.323 -5.051,1.309 0,0 -41.753,-24.108 -72.795,-42.03 26.738,16.876 65.002,41.028 65.002,41.028 1.12,0.706 1.735,1.913 1.735,3.149 0,0.656 -0.173,1.319 -0.537,1.92 -1.045,1.734 -3.288,2.311 -5.044,1.299 0,0 -47.644,-27.508 -91.693,-52.938 43.178,27.713 89.752,57.606 89.752,57.606 1.105,0.709 1.711,1.908 1.711,3.134 0,0.66 -0.175,1.328 -0.543,1.932 -1.051,1.726 -3.288,2.297 -5.039,1.287 0,0 -42.766,-24.692 -76.699,-44.283 38.095,24.152 83.248,52.778 83.248,52.778 1.117,0.707 1.73,1.912 1.73,3.145 0,0.656 -0.173,1.32 -0.538,1.922 -1.049,1.732 -3.291,2.309 -5.043,1.296 0,0 -48.574,-28.044 -94.801,-54.733 39.223,25.311 82.138,53.004 82.138,53.004 1.099,0.711 1.704,1.907 1.704,3.129 0,0.662 -0.176,1.331 -0.547,1.937 -0.721,1.18 -1.995,1.791 -3.289,1.751 0.333,0.571 0.527,1.208 0.527,1.867 0,0.647 -0.169,1.302 -0.522,1.898 -1.026,1.724 -3.225,2.299 -4.976,1.343 0.344,0.212 6.176,3.818 6.176,3.818 1.137,0.703 1.764,1.92 1.764,3.167 0,0.65 -0.168,1.308 -0.527,1.905 -1.042,1.745 -3.292,2.33 -5.052,1.314 0,0 -51.082,-29.492 -100.892,-58.251 39.507,25.579 82.203,53.221 82.203,53.221 1.097,0.711 1.698,1.905 1.698,3.126 0,0.663 -0.176,1.333 -0.546,1.938 -1.055,1.722 -3.287,2.29 -5.035,1.281 0,0 -31.505,-18.19 -49.154,-28.381 22.917,14.488 58.063,36.709 58.063,36.709 1.118,0.707 1.734,1.912 1.734,3.147 0,0.657 -0.175,1.321 -0.538,1.921 -1.046,1.734 -3.29,2.311 -5.043,1.298 0,0 -6.883,-3.974 -7.397,-4.271 0.981,0.72 1.568,1.809 1.568,2.963 0,0.651 -0.171,1.31 -0.53,1.908 -1.043,1.742 -3.291,2.325 -5.051,1.311 0,0 -42.093,-24.304 -80.643,-46.56 36.7,23.824 77.007,49.991 77.007,49.991 1.097,0.712 1.696,1.904 1.696,3.123 0,0.663 -0.179,1.335 -0.549,1.941 -1.053,1.719 -3.284,2.286 -5.032,1.278 0,0 -33.194,-19.165 -56.884,-32.842 14.716,9.456 40.763,26.192 40.763,26.192 1.104,0.71 1.71,1.908 1.71,3.133 0,0.661 -0.177,1.329 -0.545,1.933 -1.05,1.725 -3.287,2.296 -5.037,1.286 0,0 -21.853,-12.617 -32.27,-18.631 6.506,4.208 23.91,15.469 23.91,15.469 1.1,0.71 1.7,1.904 1.7,3.127 0,0.662 -0.177,1.332 -0.546,1.937 -1.053,1.721 -3.287,2.29 -5.035,1.281 0,0 -28.121,-16.237 -52.771,-30.468 16.542,11.216 38.567,26.149 38.567,26.149 1.059,0.718 1.633,1.888 1.633,3.082 0,0.676 -0.182,1.359 -0.567,1.972 -1.065,1.697 -3.279,2.248 -5.015,1.247 0,0 -28.859,-16.663 -57.488,-33.192 17.558,12.595 37.321,26.768 37.321,26.768 1.011,0.724 1.552,1.865 1.552,3.025 0,0.692 -0.193,1.392 -0.595,2.014 -1.075,1.667 -3.268,2.197 -4.987,1.206 0,0 -16.46,-9.505 -32.271,-18.632 6.348,5.062 15.541,12.394 15.541,12.394 0.918,0.731 1.403,1.814 1.403,2.911 0,0.724 -0.212,1.454 -0.648,2.093 -1.096,1.608 -3.249,2.099 -4.934,1.127 L 89.692,479.056 c -1.778,-1.028 -2.388,-3.304 -1.362,-5.083 0.712,-1.233 2.022,-1.872 3.35,-1.827 -7.95,-6.34 -17.964,-14.327 -17.964,-14.327 -0.916,-0.731 -1.4,-1.814 -1.4,-2.911 0,-0.723 0.21,-1.454 0.646,-2.093 1.098,-1.608 3.248,-2.1 4.934,-1.126 0,0 7.667,4.426 9.95,5.744 -17.561,-12.594 -37.322,-26.768 -37.322,-26.768 -1.01,-0.725 -1.554,-1.865 -1.554,-3.026 0,-0.692 0.193,-1.392 0.595,-2.014 1.074,-1.667 3.268,-2.196 4.985,-1.205 0,0 20.249,11.69 33.614,19.406 -16.55,-11.221 -38.579,-26.156 -38.579,-26.156 -1.058,-0.718 -1.632,-1.887 -1.632,-3.082 0,-0.675 0.184,-1.359 0.569,-1.972 1.062,-1.697 3.278,-2.248 5.012,-1.247 0,0 12.01,6.935 14.76,8.523 -6.51,-4.212 -23.922,-15.478 -23.922,-15.478 -1.1,-0.711 -1.7,-1.905 -1.7,-3.127 0,-0.662 0.178,-1.332 0.547,-1.937 1.053,-1.722 3.285,-2.29 5.034,-1.282 0,0 17.805,10.281 23.892,13.795 -14.688,-9.437 -40.718,-26.162 -40.718,-26.162 -1.104,-0.71 -1.709,-1.908 -1.709,-3.133 0,-0.661 0.177,-1.329 0.544,-1.933 1.051,-1.725 3.288,-2.296 5.037,-1.285 0,0 37.271,21.517 69.035,39.856 C 70.383,397.167 33.364,373.134 27.966,369.63 H 57.64 c 9.388,5.42 20.785,12.001 28.572,16.497 C 78.321,381.138 68.977,375.23 60.118,369.63 h 17.91 c 11.766,6.793 24.64,14.226 37.166,21.458 C 104.057,383.877 92.667,376.503 82.05,369.63 h 49.021 c 1.26,0.726 2.518,1.453 3.773,2.178 -1.122,-0.725 -2.247,-1.451 -3.374,-2.178 h 116.426 c 29.356,18.451 62.542,39.308 62.542,39.308"
           style="fill:#cb2943;fill-opacity:1;fill-rule:nonzero;stroke:none"
           id="path11397"
           inkscape:connector-curvature="0" /><path
           d="m 543.821,447.528 c 1.145,0.701 1.779,1.923 1.779,3.176 0,0.647 -0.17,1.302 -0.523,1.898 -1.041,1.75 -3.296,2.338 -5.057,1.32 0,0 -22.646,-13.074 -25.541,-14.746 0.445,0.267 9.593,5.748 9.593,5.748 1.162,0.698 1.808,1.93 1.808,3.195 0,0.641 -0.165,1.29 -0.514,1.882 -1.035,1.761 -3.298,2.357 -5.065,1.336 0,0 -73.413,-42.384 -141.523,-81.707 h 37.906 c 66.97,41.033 127.137,77.898 127.137,77.898"
           style="fill:#cb2943;fill-opacity:1;fill-rule:nonzero;stroke:none"
           id="path11399"
           inkscape:connector-curvature="0" /><path
           d="m 562.76,423.582 c 1.148,0.7 1.784,1.925 1.784,3.18 0,0.646 -0.168,1.3 -0.522,1.895 -1.039,1.752 -3.294,2.342 -5.058,1.324 0,0 -44.446,-25.662 -59.075,-34.107 7.234,4.356 39.363,23.706 39.363,23.706 1.159,0.698 1.802,1.928 1.802,3.19 0,0.642 -0.168,1.293 -0.517,1.886 -1.037,1.759 -3.297,2.353 -5.064,1.332 0,0 -49.552,-28.608 -70.035,-40.433 26.515,16.019 81.773,49.405 81.773,49.405 1.155,0.699 1.796,1.928 1.796,3.188 0,0.644 -0.166,1.295 -0.518,1.889 -1.036,1.757 -3.297,2.35 -5.062,1.33 0,0 -58.61,-33.839 -124.252,-71.737 h 55.055 c 45.035,27.444 88.53,53.952 88.53,53.952"
           style="fill:#cb2943;fill-opacity:1;fill-rule:nonzero;stroke:none"
           id="path11401"
           inkscape:connector-curvature="0" /><path
           d="m 548.963,392.857 c 1.14,0.702 1.77,1.922 1.77,3.172 0,0.649 -0.17,1.305 -0.525,1.902 -1.042,1.747 -3.294,2.334 -5.056,1.317 0,0 -34.576,-19.964 -51.298,-29.618 h 17.362 c 22.691,13.964 37.747,23.227 37.747,23.227"
           style="fill:#cb2943;fill-opacity:1;fill-rule:nonzero;stroke:none"
           id="path11403"
           inkscape:connector-curvature="0" /><path
           d="m 534.683,465.378 c 1.144,0.702 1.777,1.924 1.777,3.177 0,0.647 -0.169,1.301 -0.522,1.898 -1.042,1.75 -3.295,2.338 -5.057,1.32 0,0 -86.585,-49.989 -166.153,-95.928 65.782,40.256 142.081,86.946 142.081,86.946 1.145,0.701 1.778,1.924 1.778,3.176 0,0.648 -0.168,1.303 -0.523,1.899 -1.041,1.749 -3.294,2.338 -5.056,1.321 0,0 -79.753,-46.044 -148.916,-85.977 70.623,43.168 150.937,92.261 150.937,92.261 1.147,0.7 1.781,1.923 1.781,3.177 0,0.646 -0.168,1.301 -0.523,1.896 -1.039,1.751 -3.294,2.34 -5.058,1.323 0,0 -75.766,-43.744 -133.623,-77.147 47.718,28.991 115.933,70.438 115.933,70.438 1.153,0.699 1.789,1.925 1.789,3.182 0,0.646 -0.168,1.299 -0.52,1.893 -1.037,1.753 -3.295,2.345 -5.06,1.326 0,0 -77.379,-44.675 -141.281,-81.569 59.832,36.493 133.934,81.689 133.934,81.689 1.148,0.701 1.784,1.925 1.784,3.179 0,0.646 -0.167,1.301 -0.522,1.896 -0.923,1.555 -2.787,2.081 -4.432,1.492 l 0.088,0.052 c 1.163,0.698 1.809,1.93 1.809,3.195 0,0.642 -0.165,1.29 -0.513,1.882 -1.037,1.761 -3.298,2.357 -5.067,1.336 0,0 -108.421,-62.596 -216.647,-125.081 H 378.29 c 76.618,46.908 156.393,95.748 156.393,95.748"
           style="fill:#cb2943;fill-opacity:1;fill-rule:nonzero;stroke:none"
           id="path11405"
           inkscape:connector-curvature="0" /><path
           d="m 549.061,280.73 c 1.12,0.707 1.735,1.915 1.735,3.15 0,0.654 -0.173,1.318 -0.535,1.92 -1.048,1.733 -3.29,2.31 -5.044,1.299 0,0 -31.548,-18.214 -42.835,-24.73 13.322,8.194 46.982,28.897 46.982,28.897 1.142,0.702 1.772,1.921 1.772,3.172 0,0.648 -0.169,1.304 -0.526,1.901 -1.041,1.747 -3.294,2.334 -5.054,1.317 0,0 -43.427,-25.072 -78.434,-45.283 h 36.992 c 25.295,15.959 44.947,28.357 44.947,28.357"
           style="fill:#ffffff;fill-opacity:1;fill-rule:nonzero;stroke:none"
           id="path11407"
           inkscape:connector-curvature="0" /><path
           d="m 538.777,261.239 c 1.116,0.707 1.728,1.913 1.728,3.146 0,0.656 -0.175,1.321 -0.538,1.924 -1.049,1.731 -3.289,2.306 -5.042,1.295 0,0 -11.038,-6.375 -26.379,-15.231 h 16.258 c 8.346,5.296 13.973,8.866 13.973,8.866"
           style="fill:#ffffff;fill-opacity:1;fill-rule:nonzero;stroke:none"
           id="path11409"
           inkscape:connector-curvature="0" /><path
           d="m 481.137,337.61 c 13.48,8.18 36.636,22.232 52.766,32.02 h -15.795 c -27.927,-16.124 -71.217,-41.117 -111.591,-64.428 37.274,22.938 76.771,47.242 104.699,64.428 h -17.362 c -1.665,-0.961 -3.155,-1.821 -4.413,-2.548 1.232,0.744 2.652,1.603 4.217,2.548 h -17.379 c -13.343,-7.704 -26.92,-15.542 -38.925,-22.473 11.817,7.2 24.406,14.872 36.876,22.473 h -55.055 c -14.237,-8.22 -28.802,-16.629 -43.174,-24.926 13.549,8.301 27.251,16.696 40.683,24.926 h -37.906 c -2.869,-1.657 -5.73,-3.31 -8.576,-4.952 2.69,1.646 5.387,3.298 8.088,4.952 H 248.901 c -4.122,-2.38 -8.244,-4.76 -12.358,-7.135 3.66,2.3 7.474,4.696 11.353,7.135 H 131.47 C 93.192,344.929 52.693,318.794 52.693,318.794 c -1.101,-0.711 -1.703,-1.906 -1.703,-3.129 0,-0.662 0.177,-1.331 0.546,-1.936 1.052,-1.723 3.286,-2.292 5.034,-1.283 0,0 39.814,22.987 69.46,40.104 -38.07,-24.136 -83.212,-52.754 -83.212,-52.754 -1.114,-0.707 -1.727,-1.912 -1.727,-3.146 0,-0.656 0.173,-1.321 0.538,-1.922 1.049,-1.732 3.289,-2.308 5.042,-1.296 0,0 49.155,28.38 95.232,54.982 C 98.726,320.7 52.15,290.807 52.15,290.807 c -1.106,-0.711 -1.711,-1.91 -1.711,-3.135 0,-0.66 0.175,-1.328 0.543,-1.932 1.052,-1.726 3.288,-2.297 5.037,-1.287 0,0 38.647,22.313 65.275,37.687 -26.751,-16.886 -65.023,-41.041 -65.023,-41.041 -1.12,-0.707 -1.735,-1.914 -1.735,-3.15 0,-0.655 0.173,-1.319 0.537,-1.92 1.046,-1.734 3.289,-2.311 5.045,-1.298 0,0 30.27,17.476 43.161,24.919 -10.644,-6.628 -38.127,-23.743 -38.127,-23.743 -1.131,-0.704 -1.753,-1.918 -1.753,-3.161 0,-0.651 0.172,-1.311 0.531,-1.91 1.042,-1.741 3.291,-2.323 5.049,-1.308 0,0 41.019,23.682 69.556,40.158 -31.366,-19.713 -73.906,-46.449 -73.906,-46.449 -1.123,-0.705 -1.74,-1.916 -1.74,-3.153 0,-0.654 0.172,-1.316 0.533,-1.916 1.047,-1.737 3.291,-2.316 5.047,-1.302 0,0 11.432,6.6 12.146,7.013 -0.837,-0.72 -1.382,-1.691 -1.382,-2.755 0,-0.641 0.165,-1.29 0.515,-1.883 1.035,-1.761 3.296,-2.356 5.067,-1.336 0,0 68.69,39.659 119.99,69.278 -45.671,-27.856 -99.644,-60.775 -122.655,-74.81 h 15.517 c 24.96,14.411 65.549,37.845 97.832,56.484 -30.296,-18.407 -68.848,-41.83 -92.965,-56.484 h 16.081 c 32.332,18.667 82.179,47.446 129.165,74.573 -44.24,-27.041 -92.274,-56.402 -122.002,-74.573 h 16.58 c 30.237,17.458 72.609,41.921 112.293,64.833 -37.182,-22.754 -77.718,-47.56 -105.945,-64.833 h 17.044 c 32.411,18.713 76.479,44.156 118.792,68.585 -39.561,-24.221 -80.758,-49.443 -112.024,-68.585 h 33.292 c 27.938,16.131 59.843,34.552 91.109,52.603 -29.341,-17.977 -59.416,-36.404 -85.855,-52.603 h 55.156 c 8.426,4.865 16.801,9.701 24.91,14.383 -7.624,-4.647 -15.57,-9.489 -23.6,-14.383 h 38.108 c 4.499,2.598 8.993,5.192 13.463,7.773 -4.189,-2.578 -8.406,-5.172 -12.632,-7.773 h 160.188 c 41.183,25.627 89.377,55.615 89.377,55.615 1.13,0.704 1.755,1.918 1.755,3.161 0,0.653 -0.171,1.312 -0.53,1.911 -1.044,1.741 -3.292,2.324 -5.05,1.308 0,0 -23.352,-13.481 -27.936,-16.129 8.035,4.888 37.982,23.104 37.982,23.104 1.151,0.7 1.788,1.925 1.788,3.181 0,0.646 -0.168,1.299 -0.521,1.895 -1.039,1.753 -3.294,2.344 -5.059,1.325 0,0 -30.338,-17.516 -38.385,-22.162 13.054,7.937 50.481,30.691 50.481,30.691 1.151,0.7 1.788,1.926 1.788,3.183 0,0.645 -0.168,1.298 -0.521,1.893 -1.039,1.754 -3.295,2.344 -5.059,1.326 0,0 -23.172,-13.379 -27.071,-15.63 2.621,1.586 21.744,13.145 21.744,13.145 1.155,0.699 1.795,1.927 1.795,3.187 0,0.644 -0.167,1.296 -0.517,1.89 -1.038,1.756 -3.297,2.349 -5.062,1.329 0,0 -61.644,-35.589 -108.55,-62.671 52.748,32.412 117.937,72.469 117.937,72.469 1.142,0.702 1.772,1.922 1.772,3.172 0,0.649 -0.169,1.305 -0.524,1.902 -1.041,1.748 -3.293,2.335 -5.056,1.317 0,0 -18.618,-10.748 -20.97,-12.107 1.884,1.137 18.544,11.194 18.544,11.194 1.157,0.698 1.797,1.928 1.797,3.188 0,0.643 -0.166,1.294 -0.516,1.888 -1.038,1.757 -3.298,2.351 -5.064,1.33 0,0 -62.889,-36.308 -110.739,-63.933 38.334,23.525 82.039,50.347 106.379,65.285 h -16.07 c -18.004,-10.395 -40.055,-23.126 -55.459,-32.02"
           style="fill:#ffffff;fill-opacity:1;fill-rule:nonzero;stroke:none"
           id="path11411"
           inkscape:connector-curvature="0" /><path
           d="m 27.292,369.191 c -1.096,-0.711 -1.696,-1.903 -1.696,-3.123 0,-0.663 0.178,-1.334 0.549,-1.94 1.053,-1.719 3.286,-2.286 5.033,-1.278 0,0 5.599,3.233 5.935,3.426 -0.982,-0.718 -1.569,-1.809 -1.569,-2.963 0,-0.651 0.171,-1.31 0.528,-1.909 1.045,-1.743 3.292,-2.325 5.053,-1.309 0,0 7.286,4.207 16.515,9.535 H 27.966 c -0.441,-0.286 -0.674,-0.439 -0.674,-0.439"
           style="fill:#ffffff;fill-opacity:1;fill-rule:nonzero;stroke:none"
           id="path11413"
           inkscape:connector-curvature="0" /><path
           d="m 32.994,337.869 c -1.098,-0.711 -1.699,-1.905 -1.699,-3.126 0,-0.663 0.178,-1.333 0.548,-1.938 1.053,-1.722 3.286,-2.289 5.034,-1.281 0,0 11.525,6.655 12.909,7.455 -0.275,-0.171 -5.524,-3.416 -5.524,-3.416 -1.138,-0.704 -1.766,-1.921 -1.766,-3.167 0,-0.651 0.17,-1.308 0.528,-1.906 0.536,-0.898 1.422,-1.374 2.367,-1.597 -0.153,-0.093 -4.095,-2.505 -4.095,-2.505 -1.146,-0.701 -1.779,-1.923 -1.779,-3.177 0,-0.648 0.169,-1.302 0.523,-1.898 1.041,-1.75 3.294,-2.338 5.058,-1.321 0,0 43.743,25.256 85.973,49.638 H 82.05 C 55.01,352.122 32.994,337.869 32.994,337.869"
           style="fill:#ffffff;fill-opacity:1;fill-rule:nonzero;stroke:none"
           id="path11415"
           inkscape:connector-curvature="0" /><path
           d="m 28.163,349.428 c -1.119,-0.707 -1.732,-1.913 -1.732,-3.148 0,-0.656 0.173,-1.32 0.536,-1.922 1.049,-1.732 3.289,-2.309 5.045,-1.296 0,0 20.374,11.763 46.016,26.568 H 60.118 C 43.263,358.974 28.163,349.428 28.163,349.428"
           style="fill:#ffffff;fill-opacity:1;fill-rule:nonzero;stroke:none"
           id="path11417"
           inkscape:connector-curvature="0" /><path
           d="m 165.745,190.343 c -1.15,-0.701 -1.785,-1.925 -1.785,-3.181 0,-0.644 0.169,-1.3 0.521,-1.894 1.04,-1.752 3.295,-2.343 5.06,-1.325 0,0 40.061,23.13 52.707,30.432 -15.098,-9.122 -58.188,-35.149 -58.188,-35.149 -1.157,-0.698 -1.797,-1.928 -1.797,-3.189 0,-0.642 0.167,-1.294 0.517,-1.888 1.038,-1.756 3.297,-2.349 5.065,-1.33 0,0 69.406,40.073 137.793,79.554 H 267.53 c -49.334,-30.065 -101.785,-62.03 -101.785,-62.03"
           style="fill:#13a16d;fill-opacity:1;fill-rule:nonzero;stroke:none"
           id="path11419"
           inkscape:connector-curvature="0" /><path
           d="m 120.09,220.275 c -1.146,-0.7 -1.779,-1.923 -1.779,-3.176 0,-0.647 0.169,-1.303 0.523,-1.899 1.04,-1.749 3.295,-2.337 5.059,-1.32 0,0 2.361,1.363 2.39,1.38 -0.456,-0.273 -9.697,-5.81 -9.697,-5.81 -1.163,-0.697 -1.809,-1.929 -1.809,-3.194 0,-0.641 0.166,-1.291 0.514,-1.883 1.036,-1.761 3.298,-2.357 5.068,-1.336 0,0 36.675,21.175 85.451,49.336 H 172.518 C 141.378,233.309 120.09,220.275 120.09,220.275"
           style="fill:#13a16d;fill-opacity:1;fill-rule:nonzero;stroke:none"
           id="path11421"
           inkscape:connector-curvature="0" /><path
           d="m 70.842,245.477 c -1.148,-0.7 -1.782,-1.923 -1.782,-3.18 0,-0.646 0.168,-1.3 0.522,-1.895 1.039,-1.751 3.294,-2.341 5.059,-1.323 0,0 9.07,5.237 23.026,13.294 H 82.15 c -7.143,-4.356 -11.308,-6.896 -11.308,-6.896"
           style="fill:#13a16d;fill-opacity:1;fill-rule:nonzero;stroke:none"
           id="path11423"
           inkscape:connector-curvature="0" /><path
           d="m 176.63,172.476 c -1.141,-0.703 -1.772,-1.921 -1.772,-3.172 0,-0.648 0.17,-1.305 0.526,-1.901 1.041,-1.748 3.294,-2.334 5.055,-1.317 0,0 51.229,29.577 75.932,43.839 -22.234,-13.493 -70.758,-42.934 -70.758,-42.934 -1.149,-0.7 -1.789,-1.927 -1.789,-3.185 0,-0.645 0.167,-1.297 0.519,-1.892 1.039,-1.755 3.296,-2.345 5.062,-1.326 0,0 75.704,43.709 142.075,82.027 -56.732,-34.817 -125.268,-76.878 -125.268,-76.878 -1.142,-0.701 -1.774,-1.922 -1.774,-3.174 0,-0.648 0.169,-1.304 0.525,-1.899 1.041,-1.749 3.294,-2.338 5.056,-1.319 0,0 18.139,10.473 20.369,11.76 -1.908,-1.153 -18.656,-11.262 -18.656,-11.262 -1.157,-0.698 -1.798,-1.928 -1.798,-3.189 0,-0.641 0.167,-1.294 0.517,-1.887 1.037,-1.757 3.297,-2.351 5.064,-1.331 0,0 64.783,37.403 116.25,67.117 -52.755,-32.415 -117.948,-72.476 -117.948,-72.476 -1.141,-0.7 -1.773,-1.922 -1.773,-3.173 0,-0.646 0.169,-1.302 0.525,-1.9 1.04,-1.748 3.293,-2.336 5.056,-1.317 0,0 21.063,12.159 24.239,13.995 -2.617,-1.583 -21.724,-13.134 -21.724,-13.134 -1.156,-0.699 -1.796,-1.928 -1.796,-3.188 0,-0.643 0.167,-1.294 0.517,-1.889 1.038,-1.756 3.297,-2.35 5.064,-1.328 0,0 43.967,25.384 62.384,36.016 -13.055,-7.937 -50.484,-30.693 -50.484,-30.693 -1.151,-0.699 -1.789,-1.925 -1.789,-3.183 0,-0.644 0.169,-1.298 0.521,-1.892 1.039,-1.753 3.296,-2.344 5.06,-1.326 0,0 31.779,18.347 40.787,23.55 -8.015,-4.876 -37.934,-23.075 -37.934,-23.075 -1.152,-0.7 -1.788,-1.926 -1.788,-3.183 0,-0.644 0.167,-1.298 0.52,-1.892 1.039,-1.754 3.295,-2.345 5.061,-1.325 0,0 61.162,35.311 114.58,66.153 -42.315,-26.331 -95.312,-59.31 -95.312,-59.31 -1.133,-0.704 -1.757,-1.918 -1.757,-3.162 0,-0.651 0.172,-1.311 0.532,-1.91 1.043,-1.74 3.291,-2.323 5.049,-1.307 0,0 34.563,19.953 48.411,27.949 -13.323,-8.195 -46.984,-28.899 -46.984,-28.899 -1.14,-0.7 -1.77,-1.921 -1.77,-3.172 0,-0.646 0.169,-1.303 0.525,-1.9 1.04,-1.748 3.294,-2.334 5.055,-1.317 0,0 57.205,33.026 110.129,63.581 -43.098,-27.189 -92.804,-58.548 -92.804,-58.548 -1.121,-0.707 -1.735,-1.914 -1.735,-3.151 0,-0.655 0.172,-1.317 0.536,-1.918 1.047,-1.736 3.289,-2.312 5.044,-1.299 0,0 47.607,27.486 88.799,51.268 -25,-15.863 -60.903,-38.643 -60.903,-38.643 -1.114,-0.707 -1.727,-1.912 -1.727,-3.146 0,-0.656 0.174,-1.321 0.539,-1.924 1.048,-1.731 3.289,-2.306 5.041,-1.294 0,0 45.989,26.553 91.786,52.994 -17.19,-11.451 -41.072,-27.359 -41.072,-27.359 -1.075,-0.715 -1.659,-1.895 -1.659,-3.098 0,-0.672 0.181,-1.35 0.56,-1.96 1.06,-1.705 3.281,-2.263 5.02,-1.26 l 113.938,65.78 c 1.78,1.027 2.389,3.303 1.362,5.082 -1.027,1.78 -3.302,2.389 -5.082,1.361 0,0 -10.581,-6.109 -13.34,-7.7 17.205,11.458 41.097,27.374 41.097,27.374 1.073,0.715 1.657,1.895 1.657,3.099 0,0.672 -0.18,1.35 -0.559,1.96 -1.059,1.705 -3.281,2.263 -5.02,1.26 0,0 -26.094,-15.066 -38.313,-22.121 15.1,9.582 34.178,21.687 46.918,29.77 h -16.258 c -15.356,-8.865 -35.021,-20.219 -52.24,-30.161 15.983,10.084 32.878,20.742 47.808,30.161 h -36.992 c -2.182,-1.26 -4.332,-2.501 -6.435,-3.715 1.969,1.226 3.961,2.465 5.97,3.715 H 306.469 C 242.525,213.026 176.63,172.476 176.63,172.476"
           style="fill:#13a16d;fill-opacity:1;fill-rule:nonzero;stroke:none"
           id="path11425"
           inkscape:connector-curvature="0" /><path
           d="m 129.147,202.183 c -1.143,-0.702 -1.775,-1.922 -1.775,-3.176 0,-0.648 0.168,-1.302 0.523,-1.899 1.041,-1.749 3.293,-2.337 5.057,-1.319 0,0 59.58,34.399 90.468,52.232 -26.502,-16.014 -81.751,-49.395 -81.751,-49.395 -1.155,-0.698 -1.796,-1.926 -1.796,-3.188 0,-0.643 0.167,-1.293 0.518,-1.887 1.037,-1.757 3.295,-2.351 5.062,-1.33 0,0 35.776,20.656 44.818,25.876 -7.249,-4.366 -39.407,-23.733 -39.407,-23.733 -1.158,-0.698 -1.801,-1.928 -1.801,-3.191 0,-0.642 0.166,-1.292 0.516,-1.885 1.036,-1.759 3.298,-2.353 5.065,-1.333 0,0 56.859,32.828 111.576,64.418 h -55.156 c -46.613,-28.56 -81.917,-50.19 -81.917,-50.19"
           style="fill:#13a16d;fill-opacity:1;fill-rule:nonzero;stroke:none"
           id="path11427"
           inkscape:connector-curvature="0" /><path
           d="m 112.561,230.254 c -1.146,-0.701 -1.78,-1.924 -1.78,-3.177 0,-0.646 0.169,-1.301 0.524,-1.897 1.04,-1.75 3.295,-2.338 5.058,-1.322 0,0 19.855,11.464 49.387,28.515 H 148.706 C 126.99,239.085 112.561,230.254 112.561,230.254"
           style="fill:#13a16d;fill-opacity:1;fill-rule:nonzero;stroke:none"
           id="path11429"
           inkscape:connector-curvature="0" /><path
           d="m 96.818,234.672 c -1.146,-0.701 -1.78,-1.924 -1.78,-3.178 0,-0.646 0.168,-1.302 0.522,-1.897 1.041,-1.751 3.296,-2.34 5.06,-1.322 0,0 16.714,9.65 41.738,24.098 h -16.58 C 108.04,241.53 96.818,234.672 96.818,234.672"
           style="fill:#13a16d;fill-opacity:1;fill-rule:nonzero;stroke:none"
           id="path11431"
           inkscape:connector-curvature="0" /><path
           d="m 79.563,238.416 c -1.152,-0.7 -1.79,-1.926 -1.79,-3.183 0,-0.645 0.167,-1.296 0.519,-1.892 1.04,-1.754 3.295,-2.345 5.062,-1.326 0,0 13.759,7.944 35.261,20.358 H 102.534 C 88.663,243.946 79.563,238.416 79.563,238.416"
           style="fill:#13a16d;fill-opacity:1;fill-rule:nonzero;stroke:none"
           id="path11433"
           inkscape:connector-curvature="0" /></g></g></g></svg>